<svg id="Layer_1" data-name="Layer 1" xmlns="http://www.w3.org/2000/svg" xmlns:xlink="http://www.w3.org/1999/xlink" viewBox="0 0 1024 1024"><defs><style>.cls-1,.cls-53,.cls-74,.cls-75,.cls-79{fill:none;}.cls-2{fill:#9b7858;}.cls-3{fill:#e3bf99;}.cls-4{fill:#fff;}.cls-5{fill:#42b0ab;}.cls-6{clip-path:url(#clip-path);}.cls-7{fill:#d5d5d5;}.cls-8{fill:#f6b27e;}.cls-9{fill:#f39e7c;}.cls-10{fill:#ee8673;}.cls-11{fill:#ec756b;}.cls-12{fill:#e85c62;}.cls-13{fill:#e8e7e7;}.cls-14{fill:#ffd800;}.cls-15{fill:#f9c600;}.cls-16{fill:#f7b600;}.cls-17{fill:#f3a300;}.cls-18{fill:#ef8e00;}.cls-19{fill:#b6c8e8;}.cls-20{fill:#9cc0e6;}.cls-21{fill:#80b7e4;}.cls-22{fill:#64aee0;}.cls-23{fill:#26a2db;}.cls-24{fill:#595957;}.cls-25{fill:#f0f0f0;}.cls-26{fill:#71706f;}.cls-27{fill:#adacac;}.cls-28{fill:#f0ca11;}.cls-29{fill:#ddb600;}.cls-30{fill:#818282;}.cls-31{fill:#eb8000;}.cls-32{fill:#0696d3;}.cls-33{fill:#0086b9;}.cls-34{fill:#00809f;}.cls-35{fill:#065269;}.cls-36{fill:#cd985c;}.cls-37{fill:#edc000;}.cls-38{fill:#dfa67b;}.cls-39{fill:#cccccb;}.cls-40{fill:#e75625;}.cls-41{fill:#bb8555;}.cls-42{fill:#1e1f1d;}.cls-43{fill:#d9dbdb;}.cls-44{fill:#b5b5b4;}.cls-45{fill:#e76347;}.cls-46{fill:#d54519;}.cls-47{fill:#eaaa20;}.cls-48{fill:#edbc1d;}.cls-49{fill:#e89823;}.cls-50{fill:#eec119;}.cls-51{fill:#ecb71e;}.cls-52{fill:#e85153;}.cls-53{stroke:#fff;stroke-width:3.6px;}.cls-53,.cls-74,.cls-75,.cls-79{stroke-miterlimit:10;}.cls-54{fill:#b28b66;}.cls-55{fill:#7dc9ec;}.cls-56{fill:#804e1f;}.cls-57{fill:#744925;}.cls-58{fill:#008b39;}.cls-59{fill:#007f37;}.cls-60{fill:#cfe7f0;opacity:0.17;}.cls-61{fill:#4b494a;}.cls-62{fill:#f1f1f1;}.cls-63{fill:#d5d6d6;}.cls-64{fill:#e96c06;}.cls-65{fill:#c5e3eb;}.cls-66{fill:#277181;}.cls-67{fill:#24606f;}.cls-68{fill:#1c515f;}.cls-69{fill:#287281;}.cls-70{fill:#38828f;}.cls-71{fill:#317c89;}.cls-72{fill:#458c96;}.cls-73{fill:#55a2a7;}.cls-74{stroke:#eaeaea;}.cls-74,.cls-75,.cls-79{stroke-width:0.45px;}.cls-75{stroke:#e9e8e9;}.cls-76{fill:#d36d71;}.cls-77{fill:#d96b4a;}.cls-78{fill:#c7c4c4;}.cls-79{stroke:#d5d6d6;}.cls-80{fill:#e9e8e9;}.cls-81{fill:#ed7e5a;}.cls-82{fill:#70e9e2;}.cls-83{fill:#ff9aa4;}</style><clipPath id="clip-path"><rect class="cls-1" x="119.64" y="402.96" width="198.31" height="198.31" transform="translate(102.57 -33.12) rotate(11.29)"/></clipPath></defs><path class="cls-2" d="M215,454.66l22.86-114.45,25.52,5.1Q250,402.15,236.6,459Z"/><path class="cls-3" d="M234.78,344.49l.42-2,2.65-2.28L215,454.66Q223.2,399.78,234.78,344.49Z"/><path class="cls-4" d="M295.64,686.54,78.35,643.15,132.1,374l217.29,43.4-51.11,255.9Z"/><rect class="cls-5" x="119.64" y="402.96" width="198.31" height="198.31" transform="translate(102.57 -33.12) rotate(11.29)"/><g class="cls-6"><path class="cls-7" d="M278.94,485.6l-5.81,6.34a1.9,1.9,0,0,0,.11,2.68l16.4,15.05a1.91,1.91,0,0,0,2.69-.11l5.81-6.34a1.9,1.9,0,0,0-.11-2.68l-16.4-15.05A1.91,1.91,0,0,0,278.94,485.6Zm-2.05,3.95a.46.46,0,0,1,.68.63.46.46,0,1,1-.68-.63Z"/><rect class="cls-8" x="273.61" y="490.34" width="12.4" height="3.78" transform="translate(-272.05 365.6) rotate(-47.46)"/><rect class="cls-9" x="276.74" y="493.22" width="12.4" height="3.78" transform="translate(-273.16 368.84) rotate(-47.46)"/><rect class="cls-10" x="279.88" y="496.1" width="12.4" height="3.78" transform="translate(-274.26 372.08) rotate(-47.46)"/><rect class="cls-11" x="283.02" y="498.98" width="12.4" height="3.78" transform="translate(-275.37 375.33) rotate(-47.46)"/><rect class="cls-12" x="286.16" y="501.86" width="12.4" height="3.78" transform="translate(-276.47 378.57) rotate(-47.46)"/><path class="cls-13" d="M277.56,485.29l-3.61,7.8a1.9,1.9,0,0,0,.92,2.52l20.2,9.36a1.9,1.9,0,0,0,2.52-.92l3.62-7.8a1.92,1.92,0,0,0-.93-2.53l-20.19-9.36A1.91,1.91,0,0,0,277.56,485.29Zm-.76,4.38a.47.47,0,0,1,.62-.22.46.46,0,0,1,.22.61.47.47,0,0,1-.61.23A.48.48,0,0,1,276.8,489.67Z"/><rect class="cls-14" x="274.2" y="489.45" width="12.4" height="3.78" transform="translate(-283.3 539.06) rotate(-65.13)"/><rect class="cls-15" x="278.06" y="491.24" width="12.4" height="3.78" transform="translate(-282.69 543.61) rotate(-65.13)"/><rect class="cls-16" x="281.93" y="493.03" width="12.4" height="3.78" transform="translate(-282.08 548.15) rotate(-65.13)"/><rect class="cls-17" x="285.79" y="494.82" width="12.4" height="3.78" transform="translate(-281.46 552.69) rotate(-65.13)"/><rect class="cls-18" x="289.65" y="496.61" width="12.4" height="3.78" transform="translate(-280.85 557.24) rotate(-65.13)"/><path class="cls-4" d="M275.8,485.5l-.4,8.58a1.9,1.9,0,0,0,1.81,2l22.24,1a1.89,1.89,0,0,0,2-1.81l.4-8.59a1.88,1.88,0,0,0-1.8-2l-22.24-1A1.9,1.9,0,0,0,275.8,485.5Zm1,4.34a.46.46,0,1,1,.44.49A.47.47,0,0,1,276.76,489.84Z"/><rect class="cls-19" x="274.52" y="488.14" width="12.4" height="3.78" transform="translate(-221.89 747.55) rotate(-87.32)"/><rect class="cls-20" x="278.77" y="488.34" width="12.4" height="3.78" transform="translate(-218.03 751.99) rotate(-87.32)"/><rect class="cls-21" x="283.02" y="488.53" width="12.4" height="3.78" transform="translate(-214.18 756.43) rotate(-87.32)"/><rect class="cls-22" x="287.28" y="488.73" width="12.4" height="3.78" transform="translate(-210.32 760.87) rotate(-87.32)"/><rect class="cls-23" x="291.53" y="488.93" width="12.4" height="3.78" transform="translate(-206.46 765.3) rotate(-87.32)"/><path class="cls-24" d="M277.57,489.56l0,0,0,.07h0a2.84,2.84,0,0,1-.43.62l0,0h0a1.85,1.85,0,0,1-1.62.65h0a1.6,1.6,0,0,1-.51-.19,1.48,1.48,0,0,1-.46-.41,1.17,1.17,0,0,1-.15-.27,1.47,1.47,0,0,1,.22-1.52,1.51,1.51,0,0,1,1.06-.52v.35a1.11,1.11,0,0,0-1,1.55s.05.11.08.15a1.15,1.15,0,0,0,.37.36,1.34,1.34,0,0,0,.4.16h0a1.5,1.5,0,0,0,1.28-.48h0a2.53,2.53,0,0,0,.51-.72h.05l.06,0Z"/><rect class="cls-25" x="152.28" y="532.59" width="3.17" height="8.27" rx="0.81" transform="translate(-186.77 94.33) rotate(-21.6)"/><path class="cls-26" d="M163,564.79,155,567.65a1.4,1.4,0,0,1-1.76-.75q-6.12-14.13-12.23-28.24l11.9-4.31,10.86,28.56A1.45,1.45,0,0,1,163,564.79Z"/><path class="cls-27" d="M157.55,505.16l-.24.09-.24.08Z"/><path class="cls-28" d="M205.49,454.79l29.72,82.14L171,530.12l-.16,0a9.71,9.71,0,0,0-4.27.54l-28.87,10.45c-3.72,1.34-8-1.07-9.56-5.38l-3.53-9.77c-1.57-4.33.18-8.92,3.91-10.27l28.58-10.34.24-.08.24-.09a9.79,9.79,0,0,0,3.44-2.27c.11-.12.23-.24.34-.37Q183.43,478.64,205.49,454.79Z"/><path class="cls-18" d="M154.22,506.37l9.19,25.4-25.74,9.32c-3.72,1.34-8-1.07-9.56-5.38l-3.53-9.77c-1.57-4.33.18-8.92,3.91-10.27Z"/><path class="cls-18" d="M220.18,451.2h3.76a2,2,0,0,1,2,2v83.28a2,2,0,0,1-2,2h-3.75a0,0,0,0,1,0,0V451.2a0,0,0,0,1,0,0Z" transform="translate(-155.05 105.4) rotate(-19.89)"/><path class="cls-29" d="M234,533.64l1.2,3.31L171,530.14l-.17,0a9.71,9.71,0,0,0-4.27.54l-3.13,1.13-1.19-3.31,3.12-1.13a9.77,9.77,0,0,1,4.28-.54l.16,0Z"/><path class="cls-30" d="M157.61,566.72l-2.57.93a1.41,1.41,0,0,1-1.76-.75q-6.1-14.13-12.23-28.24l2.57-.93L155.86,566A1.39,1.39,0,0,0,157.61,566.72Z"/><path class="cls-31" d="M162.21,528.47l1.2,3.3-25.74,9.32c-3.72,1.34-8-1.07-9.56-5.38l-1.19-3.31c1.56,4.32,5.83,6.73,9.55,5.38Z"/><path class="cls-31" d="M238.64,529.38l1.2,3.32a2.49,2.49,0,0,1-1.5,3.18L235.23,537,234,533.7l3.1-1.13A2.48,2.48,0,0,0,238.64,529.38Z"/><path class="cls-24" d="M252.21,500.59l.25-.62c1.51.41,1.78.26,1.81-.71s.08-2.27.18-3.85l-4.78-2c-.76.85-1.45,1.58-2.13,2.36-1.08,1.24-.84,1.55.89,2.51l-.26.62-5.11-2.09.25-.62c1.47.39,1.89.38,3.48-1.29l9.33-9.76.77.16c-.16,4.36-.34,9.17-.51,13.57-.08,2.22.05,2.47,1.55,3.29l-.25.62Zm2.6-12.71c-1.48,1.61-3.06,3.32-4.44,4.8l4.14,1.69Z"/><path class="cls-24" d="M286.88,467.3a3,3,0,0,0-2.38,1.06,4,4,0,0,0-.74,2.76,3.86,3.86,0,0,0,1,2.71,3.38,3.38,0,0,0,2.55.86,4.06,4.06,0,0,0,1.42-.28,10.32,10.32,0,0,0,1.1-.56,2,2,0,0,1,.57.67,2.19,2.19,0,0,1,.23.92,1.68,1.68,0,0,1-.88,1.46,5.39,5.39,0,0,1-2.82.7,8.15,8.15,0,0,1-2.59-.29,5.84,5.84,0,0,1-2.16-1.11,5.69,5.69,0,0,1-1.51-2,7.69,7.69,0,0,1-.64-2.94,7.3,7.3,0,0,1,.4-2.84,5.94,5.94,0,0,1,1.29-2.11,5.85,5.85,0,0,1,2-1.35,7,7,0,0,1,2.48-.53,5.8,5.8,0,0,1,2.95.5,1.8,1.8,0,0,1,1.09,1.54,1.54,1.54,0,0,1-.23.93,2,2,0,0,1-.59.64,6.5,6.5,0,0,0-1.16-.55A3.68,3.68,0,0,0,286.88,467.3Z"/><path class="cls-32" d="M270.32,472.38,238,471.26l-.69,3.87v.15l.42,3.91L270,480.31c-.14-1.33-.28-2.66-.43-4C269.85,475,270.08,473.69,270.32,472.38Z"/><path class="cls-33" d="M269.61,476.32l-32.27-1.12v.08l.42,3.91L270,480.31C269.9,479,269.76,477.65,269.61,476.32Z"/><path class="cls-34" d="M270,480.31l.28-7.93-.71,3.94.43,4Z"/><path class="cls-35" d="M268.19,478.38a.08.08,0,0,0-.07.07h0l.21,1.79h.15l-.21-1.8A.08.08,0,0,0,268.19,478.38Z"/><path class="cls-35" d="M265.55,478.29s-.06,0-.07.07h0l.21,1.79h.15l-.21-1.8A.07.07,0,0,0,265.55,478.29Z"/><path class="cls-35" d="M262.91,478.2s-.06,0-.06.07,0,0,0,0l.2,1.78h.15l-.2-1.81A.08.08,0,0,0,262.91,478.2Z"/><path class="cls-35" d="M260.27,478.25a.08.08,0,0,0-.07.07h0l.19,1.64h.15l-.19-1.66A.07.07,0,0,0,260.27,478.25Z"/><path class="cls-35" d="M257.63,478.16a.07.07,0,0,0-.07.07h0l.19,1.64h.15l-.19-1.67A.06.06,0,0,0,257.63,478.16Z"/><path class="cls-35" d="M255,478.07a.07.07,0,0,0-.07.07h0l.19,1.64h.15l-.19-1.66A.06.06,0,0,0,255,478.07Z"/><path class="cls-35" d="M252.35,478s-.06,0-.07.07h0l.19,1.64h.15l-.18-1.66A.08.08,0,0,0,252.35,478Z"/><path class="cls-35" d="M249.71,477.88a.09.09,0,0,0-.06.08h0l.18,1.64H250L249.8,478A.1.1,0,0,0,249.71,477.88Z"/><path class="cls-35" d="M247.07,477.79a.09.09,0,0,0-.06.07v0l.18,1.64h.16l-.19-1.66A.1.1,0,0,0,247.07,477.79Z"/><path class="cls-35" d="M244.44,477.7a.08.08,0,0,0-.07.07v0l.18,1.63h.16l-.19-1.66A.08.08,0,0,0,244.44,477.7Z"/><path class="cls-35" d="M241.8,477.61a.08.08,0,0,0-.07.07h0l.19,1.64h.15l-.19-1.66A.08.08,0,0,0,241.8,477.61Z"/><path class="cls-35" d="M239.16,477.52a.07.07,0,0,0-.07.07h0l.19,1.64h.15l-.19-1.67A.06.06,0,0,0,239.16,477.52Z"/><path class="cls-35" d="M267,479.41a0,0,0,0,0,0,0h0l.08.75h.08l-.09-.76S267,479.41,267,479.41Z"/><path class="cls-35" d="M264.34,479.32a0,0,0,0,0,0,0h0l.08.75h.08l-.08-.76S264.36,479.31,264.34,479.32Z"/><path class="cls-35" d="M261.7,479.22s0,0,0,0h0l.09.75h.07l-.08-.76A.07.07,0,0,0,261.7,479.22Z"/><path class="cls-35" d="M259.06,479.28a0,0,0,0,0,0,0h0l.07.61h.07l-.07-.62S259.08,479.27,259.06,479.28Z"/><path class="cls-35" d="M256.42,479.18s0,0,0,0h0l.07.61h.07l-.07-.62A0,0,0,0,0,256.42,479.18Z"/><path class="cls-35" d="M253.78,479.09s0,0,0,0h0l.07.61h.07l-.07-.62A0,0,0,0,0,253.78,479.09Z"/><path class="cls-35" d="M251.14,479s0,0,0,0h0l.07.61h.07l-.07-.62A0,0,0,0,0,251.14,479Z"/><path class="cls-35" d="M248.5,478.91s0,0,0,0h0l.07.61h.08l-.07-.62A0,0,0,0,0,248.5,478.91Z"/><path class="cls-35" d="M245.86,478.82a0,0,0,0,0,0,0h0l.07.61H246l-.07-.62A0,0,0,0,0,245.86,478.82Z"/><path class="cls-35" d="M243.23,478.73a0,0,0,0,0,0,0h0l.07.61h.08l-.07-.62S243.25,478.72,243.23,478.73Z"/><path class="cls-35" d="M240.59,478.64s0,0,0,0h0l.07.61h.08l-.07-.62S240.61,478.63,240.59,478.64Z"/><path class="cls-35" d="M243.6,471.45h-.07l-.1.53h0s0,0,0,0,0,0,0,0Z"/><path class="cls-35" d="M268.74,472.32h-.15l-.31,1.69h0a.06.06,0,0,0,.06.07.08.08,0,0,0,.09-.06Z"/><path class="cls-35" d="M266.1,472.23H266l-.31,1.69v0a.07.07,0,0,0,.06.07.08.08,0,0,0,.09-.06Z"/><path class="cls-35" d="M263.46,472.14h-.15l-.31,1.69h0a.08.08,0,0,0,.06.08.08.08,0,0,0,.09-.06Z"/><path class="cls-35" d="M260.8,472.05h-.15l-.28,1.55h0a.08.08,0,0,0,.07.08.06.06,0,0,0,.08-.06Z"/><path class="cls-35" d="M258.16,472H258l-.28,1.55h0s0,.07.06.08a.09.09,0,0,0,.09-.07Z"/><path class="cls-35" d="M255.53,471.86h-.16l-.28,1.55h0a.07.07,0,0,0,.06.07.08.08,0,0,0,.09-.06Z"/><path class="cls-35" d="M252.89,471.77h-.16l-.28,1.54v0a.07.07,0,0,0,.06.07.08.08,0,0,0,.09-.06Z"/><path class="cls-35" d="M250.25,471.68h-.15l-.29,1.54v0a.07.07,0,0,0,.06.07.08.08,0,0,0,.09-.06Z"/><path class="cls-35" d="M247.61,471.59h-.15l-.29,1.55h0a.08.08,0,0,0,.06.08.08.08,0,0,0,.09-.06Z"/><path class="cls-35" d="M245,471.5h-.15l-.29,1.55h0a.09.09,0,0,0,.06.08.08.08,0,0,0,.09-.06Z"/><path class="cls-35" d="M242.33,471.41h-.15l-.29,1.55h0a.09.09,0,0,0,.06.08A.07.07,0,0,0,242,473Z"/><path class="cls-35" d="M239.69,471.32h-.15l-.29,1.55h0a.09.09,0,0,0,.06.08c.05,0,.09,0,.09-.06Z"/><path class="cls-35" d="M267.37,472.27h-.07l-.13.67h0s0,0,0,0a.05.05,0,0,0,.05,0Z"/><path class="cls-35" d="M264.74,472.18h-.08l-.13.67h0l0,0a0,0,0,0,0,0,0Z"/><path class="cls-35" d="M262.1,472.09H262l-.12.67h0a0,0,0,0,0,0,0s0,0,0,0Z"/><path class="cls-35" d="M259.44,472h-.08l-.1.53h0s0,0,0,0a.05.05,0,0,0,0,0Z"/><path class="cls-35" d="M256.8,471.91h-.08l-.1.52h0s0,0,0,0a.05.05,0,0,0,.05,0Z"/><path class="cls-35" d="M254.16,471.82h-.08l-.1.53h0s0,0,0,0a.05.05,0,0,0,.05,0Z"/><path class="cls-35" d="M251.52,471.73h-.08l-.1.53h0s0,0,0,0,0,0,0,0Z"/><path class="cls-35" d="M248.88,471.63h-.08l-.09.53h0s0,0,0,0,0,0,0,0Z"/><path class="cls-35" d="M246.24,471.54h-.07l-.1.53h0s0,0,0,0,0,0,0,0Z"/><path class="cls-35" d="M241,471.36h-.07l-.1.53h0s0,0,0,0,0,0,0,0Z"/><path class="cls-36" d="M267.82,505.6l0-5-3.6,3.37Z"/><path class="cls-37" d="M256.77,523.59l1.81.79,8.32-19.17a1,1,0,0,0-.13-.49,1,1,0,0,0-.5-.47l0,0a1.17,1.17,0,0,0-.69,0,1.1,1.1,0,0,0-.44.23Z"/><path class="cls-38" d="M267.78,500.65l-2.7,3.77-.9-.4Z"/><rect class="cls-39" x="256.52" y="522.76" width="1.65" height="3.97" transform="translate(841.17 497.59) rotate(113.46)"/><rect class="cls-40" x="255.06" y="524.81" width="2.8" height="3.97" rx="1.4" transform="translate(841.8 501.26) rotate(113.46)"/><path class="cls-41" d="M267.78,500.65l-.87,4.56.91.39Z"/><path class="cls-28" d="M256.77,523.59l8.32-19.17a.53.53,0,0,0-.39-.61.52.52,0,0,0-.52.21l-8.32,19.18Z"/><path class="cls-42" d="M257.05,523.72l1.24.53,8.48-19.53a1,1,0,0,0-.5-.47l0,0a1.17,1.17,0,0,0-.69,0Z"/><rect class="cls-43" x="255.16" y="523.66" width="1.65" height="1" transform="translate(838.72 498.01) rotate(113.46)"/><rect class="cls-44" x="257.88" y="524.84" width="1.65" height="1" transform="translate(843.62 497.17) rotate(113.46)"/><path class="cls-45" d="M253.76,525.7h2.67a.07.07,0,0,1,.07.07v0a.93.93,0,0,1-.93.93h-1.8a.07.07,0,0,1-.07-.07v-.86A.07.07,0,0,1,253.76,525.7Z" transform="translate(839.36 501.68) rotate(113.46)"/><path class="cls-46" d="M256.49,526.88h1.8a.93.93,0,0,1,.93.93v0a.07.07,0,0,1-.07.07h-2.67a.07.07,0,0,1-.07-.07V527a.07.07,0,0,1,.07-.07Z" transform="translate(844.25 500.84) rotate(113.46)"/><path class="cls-29" d="M258.58,524.38l8.32-19.17a.55.55,0,0,1,.72-.14.52.52,0,0,1,.2.53l-8.32,19.18Z"/><path class="cls-42" d="M267.39,501.55a.94.94,0,0,0,.4.06v-1l-.73.68A1.33,1.33,0,0,0,267.39,501.55Z"/><path class="cls-47" d="M257.72,459.51l2.27-2.92,8.39-4.9c0-.92-.07-1.83-.1-2.75l-10.13,4.79C258,455.66,257.86,457.58,257.72,459.51Z"/><path class="cls-48" d="M268.28,448.94c0,.92.07,1.83.1,2.75l25-14.62Z"/><path class="cls-28" d="M293.41,437.07l-23.16,28.12L260,456.59"/><path class="cls-49" d="M257.72,459.51l4.19-1.31L260,456.59Z"/><path class="cls-28" d="M293.41,437.07l-44.07,11.85,8.81,4.81"/><path class="cls-50" d="M270.25,465.19l.12-14.66L260,456.59l10.26,8.6"/><path class="cls-51" d="M268.28,448.94v0H249.34l8.81,4.81,10.13-4.79"/><g id="W_Mark" data-name="W Mark"><path class="cls-31" d="M196.14,490.47a12,12,0,0,1,7.08-.28,12.93,12.93,0,0,1,2.18.8,12.52,12.52,0,0,1,2,1.2,12.34,12.34,0,0,1,1.73,1.58,12.11,12.11,0,0,1,3.12,8.89,12,12,0,0,1-.38,2.31,12.62,12.62,0,0,1-.8,2.18,12.46,12.46,0,0,1-2.78,3.73,12.13,12.13,0,0,1-11.2,2.74,12.46,12.46,0,0,1-4.17-2,11.76,11.76,0,0,1-1.74-1.57,12.16,12.16,0,0,1-3.11-8.9,12.21,12.21,0,0,1,.37-2.31,12.93,12.93,0,0,1,.8-2.18,12.57,12.57,0,0,1,1.21-2,11.69,11.69,0,0,1,1.57-1.73,12,12,0,0,1,4.13-2.46m-.25-.73a12.88,12.88,0,1,0,16.41,7.91,12.89,12.89,0,0,0-16.41-7.91Z"/><path class="cls-31" d="M190,505.45a10.75,10.75,0,0,0,8.91,7.12L189.45,501A10.77,10.77,0,0,0,190,505.45Zm16.8-6.45a5.6,5.6,0,0,0-1.82-2.51,5,5,0,0,1-1.82-2,1.86,1.86,0,0,1,1.07-2.4l.13,0a10.73,10.73,0,0,0-14.64,7.26l.66-.21c1.06-.37,2.65-1.08,2.65-1.08a.44.44,0,0,1,.36.81s-.53.26-1.12.51l7.53,9.68-.11-7.43-3.1-3.77c-.55.16-1.09.28-1.09.28a.45.45,0,0,1-.23-.86s1.72-.46,2.71-.81,2.66-1.07,2.66-1.07a.44.44,0,0,1,.36.81s-.53.26-1.13.5l7.47,9.61-.11-3.68A12.34,12.34,0,0,0,206.81,499Zm-6.18,3.73.06,9.89a10.62,10.62,0,0,0,6.17-2.34.63.63,0,0,1-.12-.11Zm6.71-8.8a9,9,0,0,1,.43,1,10.15,10.15,0,0,1,.5,3.9l0,10a10.74,10.74,0,0,0-1-14.95Z"/></g></g><path class="cls-2" d="M488.07,470.63,483.57,354l26-1q.27,58.39.52,116.78Z"/><path class="cls-3" d="M481.58,358.89l-.06-2.05c.69-.94,1.36-1.89,2.05-2.83l4.5,116.62Q483.24,415.34,481.58,358.89Z"/><path class="cls-2" d="M762,456,741.42,341.14l25.63-4.58,16.59,115.59Z"/><path class="cls-3" d="M740.13,346.25c-.11-.68-.23-1.35-.34-2,.55-1,1.09-2.06,1.63-3.09L762,456Q749.54,401.94,740.13,346.25Z"/><path class="cls-4" d="M921.72,642.43l-218.12,39-48.28-270.2,218.12-39,45.9,256.89Z"/><rect class="cls-52" x="684.72" y="401.64" width="198.31" height="198.31" transform="matrix(0.98, -0.18, 0.18, 0.98, -75.86, 145.68)"/><path class="cls-4" d="M620.64,677.26l-221.41,8.56-10.6-274.26L610,403l10.08,260.76Z"/><rect class="cls-28" x="404.46" y="418.83" width="198.31" height="198.31" transform="matrix(1, -0.04, 0.04, 1, -19.63, 19.84)"/><path class="cls-53" d="M48.06,336a2198.92,2198.92,0,0,0,388.11,48.85A2204.1,2204.1,0,0,0,980.09,336.6"/><path class="cls-3" d="M219.43,451.77l22.86-114.45,25.52,5.1Q254.43,399.26,241,456.08Z"/><path class="cls-54" d="M239.22,341.6l.42-2,2.65-2.28L219.43,451.77Q227.64,396.89,239.22,341.6Z"/><rect class="cls-55" x="721.34" y="448.26" width="122.7" height="101.35" transform="translate(-75.55 145.44) rotate(-10.13)"/><path class="cls-56" d="M753,507.52a59.64,59.64,0,0,1,11.33,20,60.71,60.71,0,0,1,1.43,32.81l20.39-3.86A58.87,58.87,0,0,1,770.43,527a58.22,58.22,0,0,1,.84-26.34"/><path class="cls-57" d="M786.13,556.51l-3.43.64a57.77,57.77,0,0,1-14-54.81l-15.37,5.72-.38-.45,18.31-6.82a58.07,58.07,0,0,0-.84,26.34A58.76,58.76,0,0,0,786.13,556.51Z"/><path class="cls-58" d="M790.63,490.09A17,17,0,0,1,772.54,510a12.06,12.06,0,0,1-23.39,1.2,12.06,12.06,0,0,1-13.43-18.48,19.28,19.28,0,0,1,27.36-25.4,11.86,11.86,0,0,1,5.77-2.75,12.05,12.05,0,0,1,14,9.75,11.82,11.82,0,0,1,0,4.36A16.93,16.93,0,0,1,790.63,490.09Z"/><path class="cls-59" d="M790.61,490a16.94,16.94,0,0,1-13.7,19.65,16.68,16.68,0,0,1-4.33.21,16.94,16.94,0,0,0,1.75-29.8,9,9,0,0,0,0-4.37c-1.08-4.27-5.54-7.51-11.27-8.4a11.8,11.8,0,0,1,5.75-2.86,12.11,12.11,0,0,1,8.8,1.93,12.52,12.52,0,0,1,5.19,7.82,11.81,11.81,0,0,1,0,4.37A16.91,16.91,0,0,1,790.61,490Z"/><path class="cls-60" d="M795.49,547.6l48.11-56.53-7.54-42.23L731.12,559.1l64.37-11.5"/><path class="cls-60" d="M725.76,521.61,783,447.45l-50.08,8.95-15.64,17.84Z"/><path class="cls-60" d="M812.09,543.15q15.82-20.43,31.64-40.88l1.1,5L817.9,541.92Z"/><rect class="cls-61" x="781.75" y="448.14" width="3.18" height="101.4" transform="translate(-75.53 145.55) rotate(-10.13)"/><rect class="cls-61" x="722.65" y="497.26" width="121.38" height="3.18" transform="translate(-75.53 145.55) rotate(-10.13)"/><path class="cls-62" d="M728.6,550.53H857.81a2.38,2.38,0,0,1,2.38,2.38v2.62a0,0,0,0,1,0,0h-134a0,0,0,0,1,0,0v-2.62A2.38,2.38,0,0,1,728.6,550.53Z" transform="matrix(0.98, -0.18, 0.18, 0.98, -84.9, 148.13)"/><path class="cls-63" d="M854.62,539.86,730.68,562,712.07,457.83,836,435.69Zm-120.29,16.9,115-20.55-17-95.28-115,20.55Z"/><path class="cls-64" d="M837.14,539.09l-.55-1.17a4.92,4.92,0,0,0,2.24-2,5.53,5.53,0,0,0,.39-4.28c-.16-.41-.33-.56-.41-.59s-.65-.1-2.16,1.85l-1-.79c1.42-1.82,2.62-2.59,3.57-2.29a2.11,2.11,0,0,1,1.22,1.34,6.8,6.8,0,0,1-.46,5.39A6.28,6.28,0,0,1,837.14,539.09Z"/><path class="cls-18" d="M824.79,530.08h12.76a.38.38,0,0,1,.38.38v6.38a6.76,6.76,0,0,1-6.76,6.76h0a6.76,6.76,0,0,1-6.76-6.76v-6.38a.38.38,0,0,1,.38-.38Z" transform="translate(-81.46 154.56) rotate(-10.13)"/><path class="cls-64" d="M836.71,529.37l1.12,6.28a6.76,6.76,0,0,1-10.22,6.94A6.76,6.76,0,0,0,837,535.2l-1.08-6.06.39-.07A.39.39,0,0,1,836.71,529.37Z"/><path class="cls-65" d="M828.32,530.11c4-2.77,4.86-4.21,4.57-5-.48-1.36-4.21-.68-5-2.48-.53-1.13.33-2.68,1.33-4-3.08,2.48-3.61,3.93-3.33,4.82.52,1.61,3.7,1.47,4.19,3.2C830.35,527.79,829.37,529.08,828.32,530.11Z"/><path class="cls-4" d="M848.59,428.34a4.51,4.51,0,0,1-8.27,3.18l-133.4,23.83a4.5,4.5,0,1,1-.58-3.29l133.39-23.83a4.51,4.51,0,0,1,8.86.11Z"/><path class="cls-66" d="M738.16,446.38c4.77,43.21,4.44,75.18,2.41,83.14a53.41,53.41,0,0,1-6.84,15.62,42.82,42.82,0,0,1-2.62,3.42q2.43,3.32,4.82,6.91a190.35,190.35,0,0,1,15,27.19l-17.64,3.39q-4.47-18.3-8.5-37.56c-7.05-33.81-12.18-66.2-15.83-96.9Z"/><path class="cls-67" d="M735.94,555.47a191.22,191.22,0,0,1,15,27.19l-17.64,3.39,0-.08,12-2.3a190.7,190.7,0,0,0-15-27.18c-1.6-2.4-3.21-4.7-4.83-6.92a42.2,42.2,0,0,0,2.63-3.41,53.55,53.55,0,0,0,6.83-15.62c2-8,2.36-39.93-2.41-83.14l5.69-1c4.77,43.21,4.44,75.18,2.41,83.14a53.41,53.41,0,0,1-6.84,15.62,42.82,42.82,0,0,1-2.62,3.42Q733.54,551.88,735.94,555.47Z"/><path class="cls-66" d="M807.14,434.05c10.48,42.2,21.86,72.07,26.52,78.84a53.44,53.44,0,0,0,11.83,12.28,39.87,39.87,0,0,0,3.64,2.3c-.75,2.64-1.47,5.36-2.13,8.16a190.31,190.31,0,0,0-4.68,30.7L860,563.41q-2.14-18.72-5-38.19c-5.09-34.15-11.5-66.32-18.71-96.38Z"/><path class="cls-67" d="M847,535.63a190.31,190.31,0,0,0-4.68,30.7L860,563.41v-.08l-12,2a190.26,190.26,0,0,1,4.68-30.71c.66-2.8,1.38-5.52,2.13-8.16a42.86,42.86,0,0,1-3.65-2.29,53.7,53.7,0,0,1-11.82-12.29c-4.66-6.77-16-36.64-26.53-78.83l-5.68,1c10.48,42.2,21.86,72.07,26.52,78.84a53.7,53.7,0,0,0,11.82,12.29,42.86,42.86,0,0,0,3.65,2.29C848.38,530.11,847.66,532.83,847,535.63Z"/><path class="cls-68" d="M724.26,549.93c-.14-.66,7.24-2.52,7.5-1.88.14.35-1.78,1.62-3.91,2C726.31,550.36,724.32,550.26,724.26,549.93Z"/><path class="cls-68" d="M855.71,526.15c-.18-.47-7.37.77-7.32,1.27,0,.27,2.25.45,4.27,0C854.11,527.1,855.8,526.38,855.71,526.15Z"/><path class="cls-3" d="M765,451.72,744.5,336.83l25.62-4.58,16.59,115.59Z"/><path class="cls-54" d="M743.21,341.94c-.12-.68-.23-1.35-.34-2,.54-1,1.08-2.06,1.63-3.09L765,451.72Q752.61,397.63,743.21,341.94Z"/><g id="Layer_3" data-name="Layer 3"><path class="cls-69" d="M495.12,548,468.3,596.38,453.68,582.3l-8.1-7.8L436.8,566l26.83-48.34h0Z"/><path class="cls-70" d="M463.65,517.7,505,530.28l32.51,28.41L495.12,548Z"/><polygon class="cls-71" points="495.12 548.02 468.3 596.38 510.71 607.04 537.53 558.68 537.51 558.67 495.12 548.02"/><path class="cls-69" d="M522.64,545.67l-40.56-10.19-6.67-6.43L515,539Z"/><path class="cls-67" d="M464,549.58h0s1.61-3,3.19-5.84c1-1.9,4.06-7.34,8.19-14.69l6.68,6.43-11.22,20.28L464,549.58"/><path class="cls-67" d="M448.59,577.39h0l2.72-5q3.68-6.69,7.37-13.21l6.79,6.22-10.2,18.42Z"/><g id="W_Mark-2" data-name="W Mark"><path class="cls-72" d="M471.57,545.79a2.92,2.92,0,0,1,.87.88,3.17,3.17,0,0,1,.51,1.71,3.94,3.94,0,0,1-.05.6,3.2,3.2,0,0,1-1.37,2,3.09,3.09,0,0,1-1.11.45,3,3,0,0,1-.6,0,2.43,2.43,0,0,1-.6,0,3.18,3.18,0,0,1-2-1.36,3.22,3.22,0,0,1-.45-1.12,2.88,2.88,0,0,1-.06-.59,3.15,3.15,0,0,1,1.42-2.63,3.45,3.45,0,0,1,.54-.28,3.74,3.74,0,0,1,.57-.17,3.05,3.05,0,0,1,.6-.06,3.14,3.14,0,0,1,1.75.54m.11-.16a3.33,3.33,0,1,0,.9,4.62h0a3.32,3.32,0,0,0-.88-4.62h0Z"/><path class="cls-73" d="M467.52,546.83a2.78,2.78,0,0,0-.1,2.95l.93-3.75A2.88,2.88,0,0,0,467.52,546.83Zm3.93,2.49a1.52,1.52,0,0,0,.24-.77,1.26,1.26,0,0,1,.14-.69.48.48,0,0,1,.66-.15l0,0a2.77,2.77,0,0,0-3.35-2,3.38,3.38,0,0,0-.42.13l.15.11c.24.16.63.38.63.38a.12.12,0,0,1,0,.16.11.11,0,0,1-.15,0h0s-.14-.07-.28-.16l-.84,3.07,1.53-1.18.3-1.22-.23-.18a.12.12,0,0,1,0-.17.11.11,0,0,1,.16,0h0s.36.29.59.44l.63.39a.1.1,0,0,1,0,.15.11.11,0,0,1-.15,0l-.28-.15-.83,3,.75-.6A3.09,3.09,0,0,0,471.45,549.32Zm-1.72-.71-2.05,1.54a2.77,2.77,0,0,0,1.45.92.06.06,0,0,1,0,0Zm2.86,0c0,.08-.09.17-.15.25a2.44,2.44,0,0,1-.73.7l-2.07,1.57a2.77,2.77,0,0,0,2.94-2.51Z"/></g><path class="cls-74" d="M500.52,458.53l-.94,78.4"/><path class="cls-74" d="M521.27,469.68l-21.69,67.25"/><path class="cls-74" d="M550.09,483.78l-50.51,53.15"/><path class="cls-75" d="M567.35,494.22l-67.77,42.7"/><path class="cls-76" d="M493.23,450.7a11.4,11.4,0,0,0,4.16,6.38,10.7,10.7,0,0,0,3,1.54l7.79-12.06a13,13,0,0,0-10.19.05A12.16,12.16,0,0,0,493.23,450.7Z"/><path class="cls-77" d="M576.22,496.87c-1.09,1.3-4,.55-5.35,0a8.77,8.77,0,0,1-3.52-2.65c2.23-5.8,5-9.74,6.83-9.36,2,.41,2.25,5.87,2.46,10.3A2.39,2.39,0,0,1,576.22,496.87Z"/><path class="cls-78" d="M550.09,483.78a36.12,36.12,0,0,0,17.26,10.44l6.82-9.36c.82-10.38-4-18.6-10.25-20.2-1.15-.29-4.15-.82-8.29,1.25Z"/><path class="cls-77" d="M521.24,469.88a52.2,52.2,0,0,0,28.85,13.9q4.35-7.86,8.72-15.69L529.1,449Z"/><path class="cls-78" d="M500.43,458.62a35.85,35.85,0,0,0,20.81,11.26q4.47-7.77,8.93-15.55l-10.35-8.11-11.61.34Z"/><path class="cls-79" d="M554.87,470.08l-55.29,66.85"/><path class="cls-79" d="M503,449.38q-1.72,43.77-3.44,87.55"/><path class="cls-79" d="M527.63,454.81l-28.05,82.12"/><path class="cls-74" d="M570.82,487l-71.25,49.92"/><path class="cls-63" d="M503.05,450.42a22.67,22.67,0,0,1,24.58,4.39c.33-.48.79-1.21,1.38-2.07,5.58-8.14,10.89-15.9,19.16-18.51a21.24,21.24,0,0,1,9.17-.73,40.64,40.64,0,0,0-29.56-3.31C511.41,434.76,504.21,448.17,503.05,450.42Z"/><path class="cls-80" d="M554.72,470.37a18.69,18.69,0,0,1,9.72,4.29,19.2,19.2,0,0,1,6.41,12.61,41.75,41.75,0,0,0,4.29-26.55c-2.83-16.12-14.44-24.77-16.87-26.5a47.27,47.27,0,0,1-3.55,36.15Z"/><path class="cls-81" d="M527.63,454.81a28.49,28.49,0,0,1,27.09,15.56c1.06-1.7,13.92-22.84,5.54-34a8.14,8.14,0,0,0-7-3.91C539.49,431.15,528.36,453.31,527.63,454.81Z"/><path class="cls-77" d="M557.34,433.49a40.76,40.76,0,0,0-20.74-4.24c-20.58,1.42-32.1,18.89-33.55,21.17a7.74,7.74,0,0,0-5.81-1.67,7.51,7.51,0,0,0-4,1.95,40.72,40.72,0,0,1,9.92-13c14.53-12.58,33.41-10,37.24-9.52a52.73,52.73,0,0,1,17,5.35"/><path class="cls-81" d="M570.85,487.27a41,41,0,0,0-12.58-53,47.22,47.22,0,0,1,18,62.66,8,8,0,0,0-.83-6.16A7.94,7.94,0,0,0,570.85,487.27Z"/><circle class="cls-63" cx="543.01" cy="455.36" r="0.47"/><circle class="cls-63" cx="543.52" cy="451.53" r="0.35"/><circle class="cls-63" cx="547.77" cy="457.32" r="0.35"/><circle class="cls-63" cx="546.99" cy="449.9" r="0.24"/><circle class="cls-63" cx="549.14" cy="453.76" r="0.24"/><circle class="cls-63" cx="550.52" cy="451.59" r="0.57"/><path class="cls-63" d="M545.71,450.8a2.59,2.59,0,0,1,.86-.18,2.45,2.45,0,0,1,1.13.24,3.27,3.27,0,0,1,1.5,1.3,2.53,2.53,0,0,1,.13.22.63.63,0,0,1-.26.81.61.61,0,0,1-.82-.22,2.28,2.28,0,0,0-.85-.84,1.3,1.3,0,0,0-1.37,0,1.54,1.54,0,0,0-.41.36,1.69,1.69,0,0,0-.43,1.2,1.31,1.31,0,0,0,.58.95A2.26,2.26,0,0,0,547,455a.6.6,0,0,1,.58.62s0,.08,0,.11a.62.62,0,0,1-.59.5,3.47,3.47,0,0,1-1.31-.25,3,3,0,0,1-1.4-1.16,2.5,2.5,0,0,1-.22-2.23A3.09,3.09,0,0,1,545.71,450.8Z"/></g><path class="cls-3" d="M491.39,466l-4.51-116.62,26-1,.51,116.77Z"/><path class="cls-54" d="M484.89,354.24c0-.68,0-1.36-.05-2.05l2-2.83L491.39,466Q486.55,410.71,484.89,354.24Z"/><path class="cls-53" d="M983.59,337c-4.08-7-13.86-26.21-8.45-48.29,2.62-10.73,10.47-28.84,20.23-28.57,9.17.26,17.1,16.65,17.86,29.76,1.57,27-27,45.42-29.64,47.1"/><path class="cls-53" d="M983.59,337c1.47-6.55,3.95-22-3.69-37.58-8.84-18.06-29.68-33.21-39.28-28-9.12,5-9,28.86,1.19,44.64C955,336.39,981,336.94,983.59,337"/><path class="cls-53" d="M983.59,337a32.17,32.17,0,0,1,8.81,11.82c5.7,13.54-2.15,23.76,0,36.9,1.2,7.39,5.8,17.16,20.83,27.38"/><path class="cls-53" d="M983.59,337a73.05,73.05,0,0,0-3.1,15.39c-1,11.73,1.34,17.44,1.19,26.79-.09,6.16-1.3,14.94-6.54,25.59"/><path class="cls-53" d="M48.77,333.84c2.37-7.78,7.55-28.66-2.72-48.95-5-9.86-16.73-25.72-26.18-23.24C11,264,7,281.74,9.22,294.68c4.6,26.67,36.55,38.13,39.55,39.16"/><path class="cls-53" d="M48.77,333.84c-2.93-6-8.83-20.5-4.93-37.43,4.52-19.6,21.39-39.08,31.93-36.15,10,2.78,15.34,26.06,9,43.75-8.24,22.81-33.4,29.22-35.95,29.83"/><path class="cls-53" d="M48.77,333.84a32.2,32.2,0,0,0-5.91,13.51c-2.48,14.48,7.47,22.65,8.36,35.94.5,7.48-1.76,18-14.08,31.39"/><path class="cls-53" d="M48.77,333.84a73.08,73.08,0,0,1,6.5,14.29c3.68,11.18,2.65,17.29,4.91,26.36,1.48,6,4.65,14.26,12.17,23.44"/><path class="cls-81" d="M591.68,599.18c-1.27.21-3.3,1.45-4.46,2a5.41,5.41,0,0,1-4,.71c-.65-.2-1.72-.8-1.79-1.6s.91-1.57,2.86-3.16c.43-.35.57-.44.8-.63,1-.82,3.64-2.92,3.62-5.63a4.63,4.63,0,0,0-2.35-4,4.43,4.43,0,0,0-3-.24,6.54,6.54,0,0,0-2.57,1.42,13.25,13.25,0,0,0-3.67,4.33,10.22,10.22,0,0,0-1.4,4.64,9.29,9.29,0,0,0,.81,4.18,7.59,7.59,0,0,0,5.49,4.49,10.24,10.24,0,0,0,3.82.16,11.38,11.38,0,0,0,5.91-2.92c1.63-1.37,1.67-2,1.63-2.34a1.75,1.75,0,0,0-1.15-1.36A1.26,1.26,0,0,0,591.68,599.18Zm-12-2.36c-.64-.45.22-3.34,2.06-4.94.58-.49,1.74-1.34,2.23-1s-.05,2.06-.09,2.18a5.41,5.41,0,0,1-1.28,1.92C582,595.55,580.22,597.23,579.65,596.82Z"/><rect class="cls-81" x="577.1" y="577.41" width="2.68" height="7.81" rx="1.32" transform="translate(-187.38 287.98) rotate(-24.18)"/><rect class="cls-81" x="583.11" y="576.12" width="2.68" height="7.81" rx="1.32" transform="translate(61.79 -56.24) rotate(5.82)"/><rect class="cls-81" x="572.43" y="580.92" width="2.68" height="7.81" rx="1.32" transform="translate(1383.76 461.79) rotate(125.82)"/><rect class="cls-81" x="570.29" y="586.28" width="2.68" height="7.81" rx="1.32" transform="translate(1234.49 104.7) rotate(97.87)"/><rect class="cls-81" x="588.54" y="578.08" width="2.68" height="7.81" rx="1.32" transform="translate(422.99 -229.69) rotate(33.77)"/><path class="cls-82" d="M251,596.31a2.44,2.44,0,0,1-.22-1.6h0a4.38,4.38,0,0,1,1.4-2.28h0a6.78,6.78,0,0,1,2.33-1.41h0a3,3,0,0,1,1.51-.17h0a1.34,1.34,0,0,1,.27.07h0a2.7,2.7,0,0,1,1.43,1.11h0c0,.09.1.17.14.26h0c.14-.47.31-1,.48-1.65h0c.42-1.43.86-3,1-3.49h0a.44.44,0,0,0,0-.09h0a4.37,4.37,0,0,1,0-.83h0a.94.94,0,0,1,.21-.47h0a.61.61,0,0,1,.57-.19h0a1.22,1.22,0,0,1,1,1.44h0a1.28,1.28,0,0,1-.14.4h0l0,0h0s0,.1-.07.18h0c-.05.15-.12.35-.19.59h0c-.16.49-.36,1.15-.57,1.87h0c-.38,1.31-.79,2.85-1.06,4h0a1.54,1.54,0,0,1,.36.26h0a.82.82,0,0,1,.21.46h0a1.94,1.94,0,0,1,0,.35h0a.78.78,0,0,1-.25.45h0a.84.84,0,0,1-.4.2h0a3.81,3.81,0,0,1-.47.07h0a4.19,4.19,0,0,1-.08.82h0a1.67,1.67,0,0,1-.13.45h0a.81.81,0,0,1-.31.39h0a.57.57,0,0,1-.42.08h0l-.08,0h0a1.35,1.35,0,0,1-.56-.33h0a.86.86,0,0,1-.24-.5h0a1.8,1.8,0,0,1,0-.22h0c-.29.11-.67.25-1.1.39h0a6.87,6.87,0,0,1-3.08.35h0a1.94,1.94,0,0,1-1.43-1Zm2.73-3.08a3.77,3.77,0,0,0-1.36,1.84h0a.51.51,0,0,0,0,.41h0a.58.58,0,0,0,.44.26h0a4.06,4.06,0,0,0,1.79-.27h0c.66-.2,1.37-.49,2-.74h0c0-.13,0-.31,0-.5h0a3.55,3.55,0,0,0-.32-1.31h0a.84.84,0,0,0-.45-.46h0l-.14,0h0a3,3,0,0,0-2,.82Zm7.14,4a7.26,7.26,0,0,1-.47-2.33h0a18.39,18.39,0,0,1,.18-3.55h0a.68.68,0,0,0,0-.14h0a1,1,0,0,1,.29-.56h0a.68.68,0,0,1,.57-.15h0l.13,0h0a.91.91,0,0,1,.6.58h0a1.07,1.07,0,0,1,0,.55h0c0,.14-.06.28-.08.42h0a15.35,15.35,0,0,0-.3,2.75h0a3.61,3.61,0,0,0,.29,1.61h0c.11.2.2.26.31.28h0a.53.53,0,0,0,.24,0h0a1.71,1.71,0,0,0,.88-.69h0a5.27,5.27,0,0,0,.67-1.27h0a13.23,13.23,0,0,0,.55-2.06h0a.13.13,0,0,0,0-.06h0a1.12,1.12,0,0,1,.23-.53h0a.82.82,0,0,1,.79-.23h.05a.72.72,0,0,1,.46.3h0a.93.93,0,0,1,.16.4h0a1.46,1.46,0,0,1,0,.45h0v.07c-.06.19-.28,1-.62,2h0a8.8,8.8,0,0,1-1.48,2.75h0a2.11,2.11,0,0,1-1.66.83h0a2.58,2.58,0,0,1-.29,0h0a2.22,2.22,0,0,1-1.56-1.4Zm6.5,2.87-.14,0h0a.92.92,0,0,1-.57-.5h0a.77.77,0,0,1-.08-.38h0l-.09,0h0a.79.79,0,0,1-.41-.46h0v0a.34.34,0,0,1,0-.11h0v0h0s0-.07,0-.11h0c0-.09,0-.22.06-.36h0c0-.3.11-.7.2-1.16h0a32.11,32.11,0,0,1,.74-3.17h0a1.13,1.13,0,0,1-.14-.6h0a.17.17,0,0,0,0-.07h0a.87.87,0,0,1,.34-.49h0a1.29,1.29,0,0,1,.33-.17h0l.06-.16h0c.09-.19.2-.46.33-.78h0a13.92,13.92,0,0,0,.65-2.11h0a.43.43,0,0,1,0-.11h0s0-.16,0-.31h0a2.05,2.05,0,0,1,0-.55h0a.83.83,0,0,1,.26-.47h0a.86.86,0,0,1,.6-.17h.08a.7.7,0,0,1,.42.28h0a1.17,1.17,0,0,1,.22.43h0a2.32,2.32,0,0,1,.06,1.16h0a.5.5,0,0,1,0,.12h0a6.08,6.08,0,0,1-.42,1.33h0c-.15.35-.33.75-.54,1.31h0a6.94,6.94,0,0,1,1.83.64h0a3.17,3.17,0,0,1,1.7,2h0a1.57,1.57,0,0,1,0,.61h0a3,3,0,0,1-.73,1.28h0a8.73,8.73,0,0,1-1.27,1.14h0a26.35,26.35,0,0,1-2.43,1.58h0l-.26.16h0a1.75,1.75,0,0,0-.19.16h0a.76.76,0,0,1-.29.21h0a.55.55,0,0,1-.31,0h0Zm.7-4a18.36,18.36,0,0,0-.26,1.95h0l.64-.35h0a11.51,11.51,0,0,0,2.06-1.44h0a2.07,2.07,0,0,0,.66-.94h0a.53.53,0,0,0,0-.22h0a1.35,1.35,0,0,0-.7-.67h0a4.9,4.9,0,0,0-1.41-.49h0l-.32,0h0l-.15.41h0a13.64,13.64,0,0,0-.44,1.46h0c0,.12-.05.23-.07.34Zm5.09,5.54a1.11,1.11,0,0,1-.55-.32h0a.63.63,0,0,1-.17-.44h0a2.56,2.56,0,0,1,0-.48h0a13.59,13.59,0,0,1,.2-1.36h0c.4-2.07,1.23-5.22,1.72-7h0c.25-.93.45-1.73.61-2.35h0a7.08,7.08,0,0,1,.44-1.32h0a.6.6,0,0,1,.21-.25h0a.86.86,0,0,1,.63-.14h0a1,1,0,0,1,.66.52h0a.75.75,0,0,1,.13.36h0a1.41,1.41,0,0,1,0,.41h0a15.65,15.65,0,0,1-.49,1.61h0c-.26.8-.63,2-1.12,3.62h0a37.66,37.66,0,0,0-.93,3.82h0a19.88,19.88,0,0,0-.3,2h0c0,.07,0,.17-.05.27h0a2.56,2.56,0,0,1-.13.49h0a1,1,0,0,1-.36.48h0a.66.66,0,0,1-.48.1h0ZM276,601l.23-.3-.23.3a2.5,2.5,0,0,1-.79-1.22h0a3.75,3.75,0,0,1-.1-1.81h0a3.54,3.54,0,0,1,.54-1.34h0a8.31,8.31,0,0,1,1.87-2.12h0a2.51,2.51,0,0,1,1.73-.57h0l.15,0h0a2.54,2.54,0,0,1,1.39.86h0a3.36,3.36,0,0,1,.74,2.28h0a5.35,5.35,0,0,1-.08.7h0a4.3,4.3,0,0,1-2,2.83h0a4.06,4.06,0,0,1-2.77.67h0a1.66,1.66,0,0,1-.71-.3Zm3.21-5.33a.37.37,0,0,0-.13,0h0a1.83,1.83,0,0,0-.51.2h0a4.62,4.62,0,0,0-1.68,1.9h0a1.72,1.72,0,0,0-.16.47h0a2.22,2.22,0,0,0,0,.89h0a.8.8,0,0,0,.34.54h0a.33.33,0,0,0,.13,0h0a1.84,1.84,0,0,0,1.09-.27h0a2.83,2.83,0,0,0,.92-.73h0a3.55,3.55,0,0,0,.7-1.42h0a2.11,2.11,0,0,0,0-.93h0a1.13,1.13,0,0,0-.21-.5h0a.69.69,0,0,0-.27-.2h-.2Zm-.08-.11.08-.27-.08.27Zm-33.83-4a6.28,6.28,0,0,1,1.32-1.06,7.16,7.16,0,0,1,3.22-.81l.51.15a2.27,2.27,0,0,1,1,.76,1.34,1.34,0,0,1,0,1.38,2.29,2.29,0,0,1-1.38,1.23,5.4,5.4,0,0,1-2.11.33c-.73,0-1.14,0-1.24.15s0,.34.15.61a4.4,4.4,0,0,0,1.69,1,7.85,7.85,0,0,0,2.34.62,8.57,8.57,0,0,0,1.61,0c.43-.05.78.46,1,.47s.36.18.4.5c-.56.41-1.12.14-1.66.24a8,8,0,0,1-1.91.12,10.28,10.28,0,0,1-2.59-.46l-.59-.19a7.29,7.29,0,0,1-2-1.15,2.59,2.59,0,0,1-.65-.93,2.54,2.54,0,0,1-.06-1.26A4.47,4.47,0,0,1,245.32,591.55Zm1.53.85a5.73,5.73,0,0,0,2-.23c.39-.16.6-.36.63-.59s-.22-.31-.75-.23a2.68,2.68,0,0,0-1.16.4A7.14,7.14,0,0,0,246.85,592.4Z"/><path class="cls-82" d="M276.4,607.47A7.49,7.49,0,0,1,273,605h0a.62.62,0,0,1-.12-.47h0l0-.1h0a.82.82,0,0,1,.34-.42h0a.86.86,0,0,1,.53-.14h.09a.66.66,0,0,1,.44.29h0a5,5,0,0,0,.9.87h0a8.42,8.42,0,0,0,1.09.71h0a8.43,8.43,0,0,0,1.8.71h0l.61.14h0a8,8,0,0,0,1.29.11h0a7.77,7.77,0,0,0,1.7-.18h0a3.69,3.69,0,0,0,2-1.53h0a10.21,10.21,0,0,0,1.08-3h0a4.87,4.87,0,0,1-.42.35h0a3.77,3.77,0,0,1-.8.48h0a2.78,2.78,0,0,1-1.13.22h0l-.19,0h0a1.16,1.16,0,0,1-.47-.2h0a1.67,1.67,0,0,1-.45-.47h0a2.56,2.56,0,0,1-.37-1.79h0l0-.19h0a4.43,4.43,0,0,1,.67-1.65h0a11.49,11.49,0,0,1,1.25-1.57h0c.11-.12.31-.3.6-.55h0a7.44,7.44,0,0,1,1-.74h0a4.89,4.89,0,0,1,1.2-.53h0a1.66,1.66,0,0,1,.79-.05h0a1.23,1.23,0,0,1,.41.13h0a.62.62,0,0,1,.2.15h0a.3.3,0,0,1,.07.23h0s0,0,0,0h0a.65.65,0,0,1-.26.32H287l.25.07h0a.75.75,0,0,1,.58.85h0s0,0,0,.06h0l-.78,3.05h0c-.25,1-.56,2-.88,3h0a11.92,11.92,0,0,1-1,2.47h0a5.38,5.38,0,0,1-.74,1h0a4.77,4.77,0,0,1-1.7,1.07h0a7,7,0,0,1-2.05.44h0a8.9,8.9,0,0,1-2.18-.12h0a11.54,11.54,0,0,1-2.07-.6ZM286,596.73a3.35,3.35,0,0,0-.4.29h0l-.44.36h0a4.75,4.75,0,0,0-.74.75h0l-.63.82h0a4.86,4.86,0,0,0-.95,1.81h0a1.91,1.91,0,0,0,0,.56h0c0,.11,0,.16.07.18h0l.11-.06h0a2.46,2.46,0,0,0,.35-.3h0a9.49,9.49,0,0,0,1.13-1.41h0a14.36,14.36,0,0,0,.92-1.55h0l.81-1.58h0l-.23.13Z"/><path class="cls-82" d="M288.15,604a3.91,3.91,0,0,1-1-1.38h0a.51.51,0,0,1,0-.34h0a.65.65,0,0,1,.08-.22h0a1.07,1.07,0,0,1,.41-.38h0a1,1,0,0,1,.54-.12h.06a.54.54,0,0,1,.4.32h0a2.61,2.61,0,0,0,.61.83h0a.65.65,0,0,0,.29.16h0a.5.5,0,0,0,.39-.12h0l0,0h0l.05-.07h0a1.14,1.14,0,0,0,.12-.36h0a1.76,1.76,0,0,0,0-.59h0a1.9,1.9,0,0,0-.41-.78h0a4.38,4.38,0,0,0-.41-.45h0a2.16,2.16,0,0,1-.39-.51h0a1.77,1.77,0,0,1-.2-1.21h0a2.42,2.42,0,0,1,.1-.36h0A2.38,2.38,0,0,1,290,597h0a4.19,4.19,0,0,1,1.76-.48h.13a.54.54,0,0,1,.34.23h0a.57.57,0,0,1,.07.4h0a.2.2,0,0,1,0,.11h0a1,1,0,0,1-.74.62h0a2.37,2.37,0,0,0-.5.18h0a2,2,0,0,0-.51.33h0a.89.89,0,0,0-.27.41h0v0h0a.51.51,0,0,0,.15.41h0a5.47,5.47,0,0,0,.45.51h0a2.82,2.82,0,0,1,.43.58h0a5.74,5.74,0,0,1,.39.87h0a2.31,2.31,0,0,1,.13,1h0a2.91,2.91,0,0,1,0,.31h0a2.93,2.93,0,0,1-.51,1.19h0a2,2,0,0,1-1.39.78h0a2.33,2.33,0,0,1-.7,0h0a2,2,0,0,1-1-.47ZM290,602.8v0Zm0,0,0,0,0,0Z"/><path class="cls-82" d="M288.59,593.07c.15-.16.31-.3.56-.22a.39.39,0,0,1,.27.48.85.85,0,0,1-.21.33l-.86.89c-.15.16-.31.3-.56.22a.39.39,0,0,1-.27-.48.78.78,0,0,1,.21-.33Z"/><path class="cls-82" d="M286.27,592.45c0-.22.07-.43.32-.52a.39.39,0,0,1,.5.22.78.78,0,0,1,0,.39l-.15,1.24c0,.21-.07.42-.32.51a.38.38,0,0,1-.5-.22.77.77,0,0,1,0-.39Z"/><path class="cls-82" d="M284.19,592.74a.53.53,0,0,1,.09-.6.38.38,0,0,1,.55,0,.72.72,0,0,1,.18.34l.34,1.2a.52.52,0,0,1-.09.59.4.4,0,0,1-.56,0,.81.81,0,0,1-.17-.35Z"/><path class="cls-82" d="M283.85,594.3c.16.15.3.3.24.55a.4.4,0,0,1-.47.3.75.75,0,0,1-.33-.2l-.93-.82c-.16-.15-.31-.3-.24-.55a.39.39,0,0,1,.46-.3.83.83,0,0,1,.34.2Z"/><path class="cls-82" d="M290,594.7a.53.53,0,0,1,.6,0,.39.39,0,0,1,.06.55.89.89,0,0,1-.33.21l-1.15.47a.51.51,0,0,1-.6,0,.38.38,0,0,1,0-.55.81.81,0,0,1,.33-.21Z"/><path class="cls-83" d="M684.42,435.17a2.13,2.13,0,0,1-.65-1.22h0a3.82,3.82,0,0,1,.47-2.26h0a5.78,5.78,0,0,1,1.46-1.82h0a2.68,2.68,0,0,1,1.17-.58h0l.24,0h0a2.3,2.3,0,0,1,1.48.48h0a1.54,1.54,0,0,1,.19.17h0c0-.42-.06-.94-.09-1.48h0c-.09-1.27-.2-2.67-.27-3.1h0a.56.56,0,0,0,0-.07h0a3.56,3.56,0,0,1-.22-.68h0a.84.84,0,0,1,0-.44h0a.51.51,0,0,1,.4-.32h0a1.05,1.05,0,0,1,1.21.87h0a1.09,1.09,0,0,1,0,.36h0v0h0v.16h0c0,.13,0,.32,0,.54h0c0,.44,0,1,.09,1.67h0c.08,1.17.19,2.53.32,3.55h0a1.21,1.21,0,0,1,.37.1h0a.67.67,0,0,1,.3.32h0a1.52,1.52,0,0,1,.09.28h0a.74.74,0,0,1-.07.44h0a.7.7,0,0,1-.27.27h0a2.43,2.43,0,0,1-.35.2h0a5,5,0,0,1,.17.69h0a1.71,1.71,0,0,1,0,.39h0a.7.7,0,0,1-.14.42h0a.54.54,0,0,1-.32.18H690a1.2,1.2,0,0,1-.55-.1h0a.8.8,0,0,1-.34-.34h0a1.22,1.22,0,0,1-.07-.17h0c-.2.18-.47.4-.78.64h0a6,6,0,0,1-2.38,1.19h0a1.66,1.66,0,0,1-1.45-.39Zm1.31-3.28a3.23,3.23,0,0,0-.57,1.88h0a.5.5,0,0,0,.16.32h0a.56.56,0,0,0,.44.08h0a3.66,3.66,0,0,0,1.37-.74h0c.46-.36,1-.8,1.43-1.21h0c0-.1-.1-.24-.17-.39h0a3,3,0,0,0-.64-1h0a.75.75,0,0,0-.5-.24h-.14a2.48,2.48,0,0,0-1.38,1.25Zm6.92,1.09a6,6,0,0,1-1.06-1.73h0a16.39,16.39,0,0,1-.9-2.92h0a.5.5,0,0,1,0-.12h0a.83.83,0,0,1,.07-.54h0a.55.55,0,0,1,.41-.29h.12a.85.85,0,0,1,.66.3h0a.92.92,0,0,1,.18.43h0l.06.37h0a12.23,12.23,0,0,0,.57,2.3h0a3.08,3.08,0,0,0,.7,1.22h0a.42.42,0,0,0,.33.13h0A.45.45,0,0,0,694,432h0a1.54,1.54,0,0,0,.51-.81h0a4.29,4.29,0,0,0,.16-1.22h0a10.4,10.4,0,0,0-.15-1.83h0s0,0,0-.05h0a.89.89,0,0,1,0-.5h0a.69.69,0,0,1,.57-.41h0a.67.67,0,0,1,.46.11h0a.89.89,0,0,1,.25.27h0a1.62,1.62,0,0,1,.15.36h0V428c0,.18.08.92.07,1.78h0a7.6,7.6,0,0,1-.38,2.65h0a1.86,1.86,0,0,1-1.1,1.16h0l-.24,0h0a1.9,1.9,0,0,1-1.67-.68Zm6.09.42h-.13a.85.85,0,0,1-.61-.23h0a.92.92,0,0,1-.18-.29h-.08a.65.65,0,0,1-.47-.25h0v0a.25.25,0,0,1,0-.08h0v0h0a.3.3,0,0,1,0-.1h0l-.07-.3h0c-.05-.26-.11-.6-.18-1h0c-.13-.83-.27-1.88-.32-2.78h0a.78.78,0,0,1-.29-.44h0a.42.42,0,0,1,0-.06h0a.7.7,0,0,1,.13-.49h0a1.21,1.21,0,0,1,.21-.24h0a.61.61,0,0,0,0-.14h0c0-.18,0-.44,0-.73h0a10.88,10.88,0,0,0-.09-1.89h0s0-.06,0-.09h0a1.17,1.17,0,0,0-.1-.25h0a2.15,2.15,0,0,1-.15-.45h0a.66.66,0,0,1,.08-.46h0a.71.71,0,0,1,.43-.31h.07a.6.6,0,0,1,.42.09h0a1,1,0,0,1,.3.29h0a2.1,2.1,0,0,1,.39.92h0a.36.36,0,0,1,0,.1h0a5.44,5.44,0,0,1,.05,1.2h0c0,.33,0,.7-.05,1.21h0a6.43,6.43,0,0,1,1.67,0h0a2.76,2.76,0,0,1,1.95,1.1h0a1.28,1.28,0,0,1,.19.49h0a2.45,2.45,0,0,1-.21,1.25h0a7.69,7.69,0,0,1-.69,1.29h0a23.73,23.73,0,0,1-1.5,2h0l-.16.2h0a.88.88,0,0,0-.1.19h0a.69.69,0,0,1-.18.25h0a.57.57,0,0,1-.25.11Zm-.6-3.43a14.75,14.75,0,0,0,.35,1.65h0c.12-.13.27-.29.42-.47h0a9.26,9.26,0,0,0,1.24-1.77h0a1.73,1.73,0,0,0,.25-.95h0a.38.38,0,0,0-.06-.17h0a1.22,1.22,0,0,0-.77-.34h0a4.24,4.24,0,0,0-1.28,0h0L698,428h0c0,.1,0,.23,0,.38h0c0,.36,0,.84.08,1.31h0a2.5,2.5,0,0,0,0,.29Zm5.73,3a1,1,0,0,1-.54-.1h0a.56.56,0,0,1-.27-.31h0a2.49,2.49,0,0,1-.14-.39h0a11,11,0,0,1-.23-1.15h0c-.29-1.79-.54-4.57-.68-6.19h0c-.08-.83-.15-1.53-.2-2.07h0a6.4,6.4,0,0,1,0-1.2h0a.5.5,0,0,1,.1-.27h0a.82.82,0,0,1,.47-.3h0a1,1,0,0,1,.69.23h0a.74.74,0,0,1,.21.25h0a1.33,1.33,0,0,1,.1.34h0a12.26,12.26,0,0,1,.08,1.44h0c0,.73.07,1.76.16,3.25h0a32.57,32.57,0,0,0,.37,3.36h0c.1.66.23,1.25.35,1.72h0c0,.07,0,.15.05.24h0a2,2,0,0,1,0,.44h0a.9.9,0,0,1-.15.49h0a.52.52,0,0,1-.36.22ZM706,431.6l.09-.31-.09.31a2,2,0,0,1-1-.76h0a3.13,3.13,0,0,1-.62-1.42h0a3.08,3.08,0,0,1,0-1.24h0a7,7,0,0,1,.88-2.26h0a2.18,2.18,0,0,1,1.24-1h0l.12,0h0a2.11,2.11,0,0,1,1.37.29h0a2.82,2.82,0,0,1,1.27,1.62h0a4.2,4.2,0,0,1,.14.59h0a3.66,3.66,0,0,1-.76,2.86h0a3.45,3.45,0,0,1-2,1.35h0a1.3,1.3,0,0,1-.65,0Zm1-5.25-.1.06h0a1.65,1.65,0,0,0-.36.31h0a4,4,0,0,0-.79,2h0a1.26,1.26,0,0,0,0,.43h0a1.84,1.84,0,0,0,.27.71h0a.68.68,0,0,0,.42.33h.13a1.55,1.55,0,0,0,.79-.54h0a2.59,2.59,0,0,0,.54-.85h0a3,3,0,0,0,.15-1.35h0a1.81,1.81,0,0,0-.3-.74h0a.92.92,0,0,0-.31-.35h0a.58.58,0,0,0-.28-.08h0l-.14.05h0Zm-.1-.06v0ZM678.44,433a5.19,5.19,0,0,1,.76-1.24,6,6,0,0,1,2.36-1.6l.45,0a1.84,1.84,0,0,1,1.07.31,1.11,1.11,0,0,1,.41,1.1,1.92,1.92,0,0,1-.75,1.4,4.26,4.26,0,0,1-1.6.88c-.6.19-.92.35-1,.49s.06.29.3.45a3.85,3.85,0,0,0,1.64.28,7.32,7.32,0,0,0,2.08-.19,7.08,7.08,0,0,0,1.29-.48c.34-.16.77.14,1,.09s.34,0,.47.28c-.33.5-.87.45-1.27.69a7,7,0,0,1-1.51.65,9.24,9.24,0,0,1-2.22.39l-.54,0a6.24,6.24,0,0,1-1.94-.34,2.38,2.38,0,0,1-.8-.57,2.17,2.17,0,0,1-.42-1A4,4,0,0,1,678.44,433Zm1.48.24a5,5,0,0,0,1.59-.79q.39-.36.33-.66c-.05-.2-.27-.18-.67,0a2.25,2.25,0,0,0-.82.66A6.46,6.46,0,0,0,679.92,433.24Z"/><path class="cls-83" d="M708.2,436.72a6.41,6.41,0,0,1-3.45-1h0a.5.5,0,0,1-.23-.34h0a.28.28,0,0,1,0-.09h0a.71.71,0,0,1,.15-.44h0a.77.77,0,0,1,.39-.27h0l.08,0h0a.59.59,0,0,1,.44.1h0a3.61,3.61,0,0,0,1,.44h0a7,7,0,0,0,1.1.26h0a7.08,7.08,0,0,0,1.66,0h0a4.51,4.51,0,0,0,.53-.07h0a5.62,5.62,0,0,0,1.07-.28h0a6.24,6.24,0,0,0,1.32-.65h0a3.2,3.2,0,0,0,1.17-1.82h0a8.56,8.56,0,0,0,0-2.71h0c-.07.14-.15.28-.23.41h0a3,3,0,0,1-.51.62h0a2.33,2.33,0,0,1-.85.51h0l-.16,0h0a.94.94,0,0,1-.44,0h0a1.51,1.51,0,0,1-.49-.25h0a2.17,2.17,0,0,1-.83-1.34h0l0-.15h0a3.66,3.66,0,0,1,.06-1.54h0a10.38,10.38,0,0,1,.54-1.63h0c.06-.13.16-.33.33-.62h0a5.87,5.87,0,0,1,.6-.9h0a4.64,4.64,0,0,1,.82-.78h0a1.5,1.5,0,0,1,.62-.28h0a1.45,1.45,0,0,1,.36,0h0a.52.52,0,0,1,.21.07h0a.22.22,0,0,1,.12.16h0a.06.06,0,0,1,0,0h0a.61.61,0,0,1-.12.34h.05l.22,0h0a.64.64,0,0,1,.72.51h0s0,0,0,.06h0l.27,2.68h0c.09.9.13,1.8.17,2.7h0a10.09,10.09,0,0,1-.11,2.3h0a4.24,4.24,0,0,1-.3,1h0a4.12,4.12,0,0,1-1.06,1.37h0a5.81,5.81,0,0,1-1.52.95h0a7.36,7.36,0,0,1-1.8.55h0a8.65,8.65,0,0,1-1.85.11Zm4.58-11.47a2.16,2.16,0,0,0-.24.35h0c-.08.14-.16.28-.25.42h0a4.68,4.68,0,0,0-.38.83h0c-.09.28-.18.56-.26.84h0a4.08,4.08,0,0,0-.24,1.74h0a1.81,1.81,0,0,0,.14.46h0c0,.09.08.12.11.12h0l.07-.08h0a2.38,2.38,0,0,0,.2-.35h0a9.06,9.06,0,0,0,.5-1.47h0a11.28,11.28,0,0,0,.28-1.52h0c.06-.5.13-1,.19-1.51h0l-.14.17Z"/><path class="cls-83" d="M716.67,430.47a3.22,3.22,0,0,1-1.22-.81h0a.59.59,0,0,1-.14-.27h0a.46.46,0,0,1,0-.2h0a.89.89,0,0,1,.22-.43h0a.8.8,0,0,1,.4-.25h0a.46.46,0,0,1,.41.14h0a2.33,2.33,0,0,0,.74.49h0a.42.42,0,0,0,.28,0h0a.39.39,0,0,0,.28-.21h0s0,0,0,0h0s0,0,0-.07h0a.84.84,0,0,0,0-.32h0v0h0a1.4,1.4,0,0,0-.19-.46h0a1.53,1.53,0,0,0-.57-.51h0a3.88,3.88,0,0,0-.45-.24h0A1.67,1.67,0,0,1,716,427h0a1.51,1.51,0,0,1-.52-.91h0c0-.1,0-.21,0-.32h0a2.06,2.06,0,0,1,.58-1.47h0a3.74,3.74,0,0,1,1.28-.9h0l.11,0h0a.42.42,0,0,1,.34.09h0a.52.52,0,0,1,.18.3h0s0,.07,0,.1h0a.83.83,0,0,1-.43.71h0a3.59,3.59,0,0,0-.35.3h0a1.7,1.7,0,0,0-.31.41h0a.91.91,0,0,0-.1.41h0s0,0,0,0h0c0,.1.08.19.23.29h0l.51.28h0a2.51,2.51,0,0,1,.53.34h0a5.33,5.33,0,0,1,.57.59h0a2.11,2.11,0,0,1,.39.74h0l.06.26h0a2.44,2.44,0,0,1-.07,1.11h0a1.71,1.71,0,0,1-.89,1.05h0a2.12,2.12,0,0,1-.57.19h0a1.68,1.68,0,0,1-.91-.1Zm1.13-1.5v0Zm0,0,0,0,0,0Z"/><path class="cls-83" d="M713.82,421.52c.08-.17.16-.33.39-.34a.34.34,0,0,1,.36.31.78.78,0,0,1-.08.33l-.43,1c-.08.17-.17.33-.39.34a.34.34,0,0,1-.36-.31.65.65,0,0,1,.08-.32Z"/><path class="cls-83" d="M711.76,421.7a.45.45,0,0,1,.11-.5.32.32,0,0,1,.47,0,.6.6,0,0,1,.13.3l.25,1a.46.46,0,0,1-.11.51.32.32,0,0,1-.47,0,.7.7,0,0,1-.14-.3Z"/><path class="cls-83" d="M710.17,422.55a.44.44,0,0,1-.1-.51.34.34,0,0,1,.44-.16.86.86,0,0,1,.25.23l.62.87c.11.15.21.31.1.5a.32.32,0,0,1-.44.16.64.64,0,0,1-.25-.23Z"/><path class="cls-83" d="M710.35,423.91c.17.07.34.15.36.38a.32.32,0,0,1-.29.37.61.61,0,0,1-.33-.06l-1-.39c-.17-.07-.34-.15-.36-.37a.34.34,0,0,1,.29-.38.72.72,0,0,1,.33.06Z"/><path class="cls-83" d="M715.4,422.44c.14-.12.28-.23.49-.15a.33.33,0,0,1,.2.43.55.55,0,0,1-.2.26l-.79.72a.45.45,0,0,1-.49.16.34.34,0,0,1-.2-.43.65.65,0,0,1,.2-.27Z"/></svg>